<svg width="1082" height="135" viewBox="0 0 1082 135" fill="none" xmlns="http://www.w3.org/2000/svg">
<circle cx="989.052" cy="107.877" r="9.89256" fill="#009D6E"/>
<circle cx="9.89256" cy="9.89256" r="9.89256" transform="matrix(-1 0 0 1 100.669 97.9844)" fill="#009D6E"/>
<circle cx="1008.84" cy="106.471" r="9.89256" fill="#009D6E"/>
<circle cx="9.89256" cy="9.89256" r="9.89256" transform="matrix(-1 0 0 1 80.8818 96.5781)" fill="#009D6E"/>
<circle cx="944.667" cy="67.8926" r="9.89256" fill="#009D6E"/>
<circle cx="9.89256" cy="9.89256" r="9.89256" transform="matrix(-1 0 0 1 141.646 58)" fill="#009D6E"/>
<circle cx="954.559" cy="39.0801" r="9.89256" fill="#009D6E"/>
<circle cx="9.89256" cy="9.89256" r="9.89256" transform="matrix(-1 0 0 1 131.755 29.1875)" fill="#009D6E"/>
<circle cx="9.89256" cy="9.89256" r="9.89256" transform="matrix(-1 0 0 1 983.614 29.1852)" fill="#00714F"/>
<circle cx="9.89256" cy="9.89256" r="9.89256" transform="matrix(-1 0 0 1 974.539 57.9996)" fill="#00714F"/>
<circle cx="9.89256" cy="9.89256" r="9.89256" transform="matrix(-1 0 0 1 1012.15 72.6808)" fill="#00714F"/>
<circle cx="9.89256" cy="9.89256" r="9.89256" transform="matrix(-1 0 0 1 1043.14 92.4673)" fill="#00714F"/>
<circle cx="9.89256" cy="9.89256" r="9.89256" transform="matrix(-1 0 0 1 1081.74 19.293)" fill="#00714F"/>
<circle cx="9.89256" cy="9.89256" r="9.89256" transform="matrix(-1 0 0 1 1077.51 88.0928)" fill="#00714F"/>
<circle cx="9.89256" cy="9.89256" r="9.89256" transform="matrix(-1 0 0 1 954.753 93.2864)" fill="#00714F"/>
<circle cx="9.89256" cy="9.89256" r="9.89256" transform="matrix(-1 0 0 1 977.778 92.4673)" fill="#00714F"/>
<circle cx="9.89256" cy="9.89256" r="9.89256" transform="matrix(-1 0 0 1 1008.36 44.8329)" fill="#00714F"/>
<circle cx="9.89256" cy="9.89256" r="9.89256" transform="matrix(-1 0 0 1 1028.14 25.0484)" fill="#00714F"/>
<circle cx="9.89256" cy="9.89256" r="9.89256" transform="matrix(-1 0 0 1 1049.73 22.5302)" fill="#00714F"/>
<circle cx="9.89256" cy="9.89256" r="9.89256" transform="matrix(-1 0 0 1 1038.03 52.5369)" fill="#00714F"/>
<circle cx="9.89256" cy="9.89256" r="9.89256" transform="matrix(-1 0 0 1 1071.85 52.5369)" fill="#009D6E"/>
<circle cx="108.023" cy="39.0778" r="9.89256" fill="#00714F"/>
<circle cx="117.099" cy="67.8922" r="9.89256" fill="#00714F"/>
<circle cx="79.4861" cy="82.5734" r="9.89256" fill="#00714F"/>
<circle cx="48.4991" cy="102.36" r="9.89256" fill="#00714F"/>
<circle cx="9.89256" cy="29.1855" r="9.89256" fill="#00714F"/>
<circle cx="14.1257" cy="97.9854" r="9.89256" fill="#00714F"/>
<circle cx="136.885" cy="103.179" r="9.89256" fill="#00714F"/>
<circle cx="113.859" cy="102.36" r="9.89256" fill="#00714F"/>
<circle cx="83.2811" cy="54.7254" r="9.89256" fill="#00714F"/>
<circle cx="63.4966" cy="34.941" r="9.89256" fill="#00714F"/>
<circle cx="41.9107" cy="32.4227" r="9.89256" fill="#00714F"/>
<circle cx="53.6044" cy="62.4295" r="9.89256" fill="#00714F"/>
<circle cx="19.7849" cy="62.4295" r="9.89256" fill="#009D6E"/>
<g id="Group_48097767" data-ellipse="Ellipse_13">
<path d="M1005.12 7.21436L983.807 10.036V25.0586L1009.9 22.9693L1002.25 16.3741L1005.12 7.21436Z" fill="#C0E81F"/>
<path d="M983.614 9.89368V42.888" stroke="black"/>
<animateTransform attributeName="transform" type="translate" values="0 0; 1.61 -1.11; -1.61 1.11; 0 0" dur="0.77s" begin="-0.24s" repeatCount="indefinite" additive="sum"/>
</g>
<g id="Group_48097768" data-ellipse="Ellipse_21">
<path d="M76.6278 7.21436L97.9384 10.036V25.0586L71.8465 22.9693L79.4971 16.3741L76.6278 7.21436Z" fill="#F46A6A"/>
<path d="M98.1309 9.89368V42.888" stroke="black"/>
<animateTransform attributeName="transform" type="translate" values="0 0; 1.61 -1.11; -1.61 1.11; 0 0" dur="0.77s" begin="-0.24s" repeatCount="indefinite" additive="sum"/>
</g>
<g id="Group_48097770" data-ellipse="Ellipse_21">
<path d="M168.282 77.403L146.971 80.2246V95.2472L173.063 93.1579L165.413 86.5627L168.282 77.403Z" fill="#C0E81F"/>
<path d="M146.777 80.0823V113.077" stroke="black"/>
<animateTransform attributeName="transform" type="translate" values="0 0; 1.61 -1.11; -1.61 1.11; 0 0" dur="0.77s" begin="-0.24s" repeatCount="indefinite" additive="sum"/>
</g>
<g id="Group_48097771" data-ellipse="Ellipse_148">
<path d="M1064.64 72.6827L1043.33 75.5044V90.5269L1069.42 88.4377L1061.77 81.8425L1064.64 72.6827Z" fill="#1FB6E8"/>
<path d="M1043.14 75.3621V108.356" stroke="black"/>
<animateTransform attributeName="transform" type="translate" values="0 0; 1.61 -1.11; -1.61 1.11; 0 0" dur="0.77s" begin="-0.24s" repeatCount="indefinite" additive="sum"/>
</g>
<circle cx="331.027" cy="68.5895" r="9.89256" fill="#00714F"/>
<circle cx="208.268" cy="61.9187" r="9.89256" fill="#00714F"/>
<circle cx="293.413" cy="83.2707" r="9.89256" fill="#00714F"/>
<circle cx="262.426" cy="103.053" r="9.89256" fill="#00714F"/>
<circle cx="228.052" cy="98.6787" r="9.89256" fill="#009D6E"/>
<circle cx="350.812" cy="103.874" r="9.89256" fill="#00714F"/>
<circle cx="327.786" cy="103.053" r="9.89256" fill="#00714F"/>
<circle cx="297.208" cy="55.4208" r="9.89256" fill="#009D6E"/>
<circle cx="267.531" cy="63.1268" r="9.89256" fill="#00714F"/>
<circle cx="233.712" cy="63.1268" r="9.89256" fill="#00714F"/>
<circle cx="9.89256" cy="9.89256" r="9.89256" transform="matrix(-1 0 0 1 595.528 71.0859)" fill="#00714F"/>
<circle cx="9.89256" cy="9.89256" r="9.89256" transform="matrix(-1 0 0 1 633.144 94.9609)" fill="#009D6E"/>
<circle cx="9.89256" cy="9.89256" r="9.89256" transform="matrix(-1 0 0 1 664.13 114.75)" fill="#00714F"/>
<circle cx="9.89256" cy="9.89256" r="9.89256" transform="matrix(-1 0 0 1 698.503 110.375)" fill="#00714F"/>
<circle cx="9.89256" cy="9.89256" r="9.89256" transform="matrix(-1 0 0 1 629.349 67.1172)" fill="#00714F"/>
<circle cx="9.89256" cy="9.89256" r="9.89256" transform="matrix(-1 0 0 1 659.024 74.8203)" fill="#00714F"/>
<circle cx="9.89256" cy="9.89256" r="9.89256" transform="matrix(-1 0 0 1 732.415 94.9609)" fill="#00714F"/>
<circle cx="9.89256" cy="9.89256" r="9.89256" transform="matrix(-1 0 0 1 692.845 74.8203)" fill="#00714F"/>
<circle cx="9.89256" cy="9.89256" r="9.89256" transform="matrix(-1 0 0 1 766.231 94.9609)" fill="#00714F"/>
<circle cx="9.89256" cy="9.89256" r="9.89256" transform="matrix(-1 0 0 1 821.636 78.8945)" fill="#00714F"/>
<circle cx="9.89256" cy="9.89256" r="9.89256" transform="matrix(-1 0 0 1 844.712 78.4805)" fill="#00714F"/>
<circle cx="9.89256" cy="9.89256" r="9.89256" transform="matrix(-1 0 0 1 867.29 78.4805)" fill="#009D6E"/>
<circle cx="9.89256" cy="9.89256" r="9.89256" transform="matrix(-1 0 0 1 857.86 53.5898)" fill="#00714F"/>
<circle cx="9.89256" cy="9.89256" r="9.89256" transform="matrix(-1 0 0 1 791.759 93.1641)" fill="#00714F"/>
<circle cx="9.89256" cy="9.89256" r="9.89256" transform="matrix(-1 0 0 1 756.339 60.5)" fill="#00714F"/>
<circle cx="9.89256" cy="9.89256" r="9.89256" transform="matrix(-1 0 0 1 777.925 60.5)" fill="#009D6E"/>
<circle cx="9.89256" cy="9.89256" r="9.89256" transform="matrix(-1 0 0 1 877.643 29.1875)" fill="#009D6E"/>
<circle cx="9.89256" cy="9.89256" r="9.89256" transform="matrix(-1 0 0 1 824.929 42.3984)" fill="#00714F"/>
<circle cx="9.89256" cy="9.89256" r="9.89256" transform="matrix(-1 0 0 1 406.017 75.0859)" fill="#009D6E"/>
<circle cx="9.89256" cy="9.89256" r="9.89256" transform="matrix(-1 0 0 1 463.415 90.4609)" fill="#05C78D"/>
<circle cx="9.89256" cy="9.89256" r="9.89256" transform="matrix(-1 0 0 1 316.991 93.1719)" fill="#05C78D"/>
<circle cx="9.89256" cy="9.89256" r="9.89256" transform="matrix(-1 0 0 1 613.358 94.8711)" fill="#05C78D"/>
<circle cx="9.89256" cy="9.89256" r="9.89256" transform="matrix(-1 0 0 1 674.022 52.6367)" fill="#05C78D"/>
<circle cx="9.89256" cy="9.89256" r="9.89256" transform="matrix(-1 0 0 1 833.204 103.059)" fill="#05C78D"/>
<circle cx="9.89256" cy="9.89256" r="9.89256" transform="matrix(-1 0 0 1 855.724 103.059)" fill="#05C78D"/>
<circle cx="9.89256" cy="9.89256" r="9.89256" transform="matrix(-1 0 0 1 1067.62 0)" fill="#05C78D"/>
<circle cx="9.89256" cy="9.89256" r="9.89256" transform="matrix(-1 0 0 1 443.63 89.7695)" fill="#00714F"/>
<circle cx="9.89256" cy="9.89256" r="9.89256" transform="matrix(-1 0 0 1 474.618 109.555)" fill="#00714F"/>
<circle cx="9.89256" cy="9.89256" r="9.89256" transform="matrix(-1 0 0 1 588.255 106.277)" fill="#00714F"/>
<circle cx="9.89256" cy="9.89256" r="9.89256" transform="matrix(-1 0 0 1 508.991 105.18)" fill="#00714F"/>
<circle cx="9.89256" cy="9.89256" r="9.89256" transform="matrix(-1 0 0 1 386.231 110.375)" fill="#00714F"/>
<circle cx="9.89256" cy="9.89256" r="9.89256" transform="matrix(-1 0 0 1 409.257 109.555)" fill="#00714F"/>
<circle cx="9.89256" cy="9.89256" r="9.89256" transform="matrix(-1 0 0 1 439.835 61.9219)" fill="#00714F"/>
<circle cx="9.89256" cy="9.89256" r="9.89256" transform="matrix(-1 0 0 1 543.364 106.277)" fill="#00714F"/>
<circle cx="9.89256" cy="9.89256" r="9.89256" transform="matrix(-1 0 0 1 564.952 106.277)" fill="#00714F"/>
<circle cx="9.89256" cy="9.89256" r="9.89256" transform="matrix(-1 0 0 1 722.521 64.9258)" fill="#00714F"/>
<circle cx="9.89256" cy="9.89256" r="9.89256" transform="matrix(-1 0 0 1 469.513 69.625)" fill="#00714F"/>
<circle cx="9.89256" cy="9.89256" r="9.89256" transform="matrix(-1 0 0 1 503.333 69.625)" fill="#00714F"/>
<circle cx="9.89256" cy="9.89256" r="9.89256" transform="matrix(-1 0 0 1 572.952 70.6797)" fill="#00714F"/>
<circle cx="9.89256" cy="9.89256" r="9.89256" transform="matrix(-1 0 0 1 540.304 73.3789)" fill="#00714F"/>
<g id="Group_48097772" data-ellipse="Ellipse_112">
<path d="M657.213 92.007L678.523 94.8286V109.851L652.432 107.762L660.082 101.167L657.213 92.007Z" fill="#1FB6E8"/>
<path d="M678.718 94.6843V127.679" stroke="black"/>
<animateTransform attributeName="transform" type="translate" values="0 0; 1.61 -1.11; -1.61 1.11; 0 0" dur="0.77s" begin="-0.24s" repeatCount="indefinite" additive="sum"/>
</g>
<g id="Group_48097773" data-ellipse="Ellipse_124">
<path d="M561.807 53.2458L540.496 56.0675V71.0901L566.588 69.0008L558.937 62.4056L561.807 53.2458Z" fill="white"/>
<path d="M540.304 55.9252V88.9195" stroke="black"/>
<animateTransform attributeName="transform" type="translate" values="0 0; 1.61 -1.11; -1.61 1.11; 0 0" dur="0.77s" begin="-0.24s" repeatCount="indefinite" additive="sum"/>
</g>
<g id="Group_48097774" data-ellipse="Ellipse_21">
<path d="M800.121 42.1123L778.811 44.9339V59.9565L804.903 57.8672L797.252 51.2721L800.121 42.1123Z" fill="#C0E81F"/>
<path d="M778.616 44.7916V77.7859" stroke="black"/>
<animateTransform attributeName="transform" type="translate" values="0 0; 1.61 -1.11; -1.61 1.11; 0 0" dur="0.77s" begin="-0.24s" repeatCount="indefinite" additive="sum"/>
</g>
<g id="Group_48097775" data-ellipse="Ellipse_13">
<path d="M231.028 75.3247L252.339 78.1463V93.1689L226.247 91.0796L233.897 84.4845L231.028 75.3247Z" fill="#F46A6A"/>
<path d="M252.533 78.006V111" stroke="black"/>
<animateTransform attributeName="transform" type="translate" values="0 0; 1.61 -1.11; -1.61 1.11; 0 0" dur="0.77s" begin="-0.24s" repeatCount="indefinite" additive="sum"/>
</g>
<g id="Group_48097776" data-ellipse="Ellipse_23">
<path d="M382.209 71.9304L360.898 74.752V89.7746L386.99 87.6854L379.339 81.0902L382.209 71.9304Z" fill="#1F7AE8"/>
<path d="M360.704 74.6097V107.604" stroke="black"/>
<animateTransform attributeName="transform" type="translate" values="0 0; 1.61 -1.11; -1.61 1.11; 0 0" dur="0.77s" begin="-0.24s" repeatCount="indefinite" additive="sum"/>
</g>
</svg>
