<svg width="462" height="307" viewBox="0 0 462 307" fill="none" xmlns="http://www.w3.org/2000/svg">
<path d="M379.502 199.698C378.569 199.82 377.419 199.678 376.052 199.273C374.686 198.868 373.941 198.199 373.819 197.266C373.782 196.978 373.843 196.606 374.002 196.147C374.089 195.697 374.234 195.131 374.437 194.448C374.789 193.234 375.171 191.687 375.582 189.809C376.065 187.921 376.385 185.616 376.54 182.895C376.758 180.093 376.628 176.862 376.149 173.202C375.934 171.551 376.353 170.292 377.407 169.424C378.534 168.547 380.353 167.944 382.865 167.616L384.372 167.419C386.884 167.091 388.761 167.211 390.003 167.778C391.316 168.336 392.081 169.441 392.297 171.092C392.71 174.249 392.512 177.487 391.705 180.804C390.888 184.05 389.751 187.081 388.295 189.899C386.838 192.718 385.311 194.997 383.714 196.739C382.126 198.552 380.722 199.539 379.502 199.698Z" fill="white"/>
<path d="M322.392 191.633C319.365 191.908 317.13 191.712 315.688 191.043C314.24 190.303 313.45 189.212 313.319 187.77L307.231 120.844C306.968 117.961 308.891 116.332 313 115.958L336.03 113.863C345.04 113.044 351.95 114.305 356.76 117.646C361.642 120.981 364.424 126.397 365.106 133.893C365.401 137.137 365.123 140.069 364.271 142.69C363.485 145.233 362.191 147.386 360.389 149.148C358.652 150.833 356.434 152.016 353.735 152.697L353.774 153.13C355.917 153.516 357.758 154.584 359.298 156.334C360.904 158.005 362.444 160.553 363.918 163.98L370.996 180.67C371.272 181.299 371.465 181.826 371.577 182.252C371.688 182.678 371.76 183.071 371.793 183.432C371.931 184.946 371.41 186.01 370.23 186.626C369.044 187.17 367.046 187.57 364.235 187.826L360.991 188.121C358.324 188.364 356.178 188.341 354.553 188.053C352.993 187.686 351.846 186.664 351.112 184.986L345.076 170.164C344.421 168.552 343.766 167.34 343.11 166.528C342.455 165.715 341.678 165.168 340.781 164.886C339.955 164.598 338.857 164.516 337.488 164.641L331.433 165.192L333.322 185.951C333.453 187.392 332.873 188.608 331.582 189.597C330.285 190.515 328.122 191.111 325.095 191.387L322.392 191.633ZM329.849 147.784L339.04 146.948C341.418 146.732 343.06 146.001 343.964 144.756C344.94 143.504 345.31 141.581 345.074 138.986C344.845 136.463 344.137 134.674 342.951 133.619C341.837 132.558 340.09 132.135 337.712 132.352L328.521 133.188L329.849 147.784Z" fill="white"/>
<path d="M201.303 194.44C198.264 194.399 196.061 193.972 194.697 193.158C193.333 192.272 192.661 191.104 192.68 189.657L193.566 122.46C193.604 119.565 195.686 118.145 199.811 118.199L222.934 118.504C231.98 118.623 238.718 120.884 243.148 125.285C247.651 129.615 249.846 136.086 249.732 144.698C249.62 153.238 247.255 159.686 242.637 164.04C238.093 168.323 231.297 170.405 222.251 170.286L213.024 170.164L212.763 189.922C212.744 191.369 212.041 192.518 210.655 193.368C209.269 194.146 207.057 194.515 204.017 194.475L201.303 194.44ZM213.268 151.601L222.496 151.723C224.884 151.754 226.592 151.198 227.621 150.053C228.722 148.909 229.289 147.035 229.324 144.429C229.357 141.896 228.839 140.044 227.768 138.872C226.77 137.7 225.077 137.099 222.689 137.067L213.462 136.946L213.268 151.601Z" fill="white"/>
<path d="M125.718 190.388C123.335 190.238 121.727 189.847 120.897 189.214C120.139 188.587 119.791 187.767 119.855 186.756C119.9 186.033 120.093 185.284 120.432 184.508C120.703 183.654 121.012 182.767 121.36 181.846L144.708 120.222C145.572 118.028 146.635 116.681 147.9 116.18C149.169 115.607 150.959 115.393 153.27 115.539L164.322 116.234C166.706 116.384 168.455 116.82 169.57 117.543C170.762 118.198 171.648 119.668 172.23 121.953L187.781 186.024C188.083 186.986 188.315 187.907 188.477 188.787C188.644 189.596 188.704 190.361 188.659 191.083C188.595 192.095 188.112 192.862 187.209 193.385C186.378 193.913 184.734 194.1 182.278 193.945L174.802 193.475C172.707 193.343 171.026 192.984 169.757 192.396C168.561 191.814 167.767 190.603 167.375 188.766L158.819 143.192C158.603 142.018 158.387 140.844 158.171 139.67C157.954 138.496 157.774 137.325 157.63 136.155L157.197 136.128C156.907 137.27 156.582 138.41 156.22 139.547C155.859 140.685 155.497 141.823 155.135 142.96L140.612 187.082C139.993 188.856 139.125 189.962 138.01 190.4C136.895 190.837 135.145 190.981 132.761 190.831L125.718 190.388ZM136.2 177.667L137.236 161.197L174.293 163.528L173.257 179.998L136.2 177.667Z" fill="white"/>
<path d="M77.5277 185.386C74.5056 185.058 72.3539 184.424 71.0726 183.484C69.7992 182.472 69.2405 181.247 69.3967 179.808L76.6463 112.997C76.9586 110.119 79.1655 108.902 83.267 109.347L106.257 111.842C115.251 112.818 121.745 115.707 125.738 120.508C129.81 125.245 131.382 131.895 130.453 140.458C129.531 148.949 126.566 155.143 121.556 159.04C116.627 162.873 109.665 164.302 100.67 163.326L91.4959 162.331L89.3643 181.974C89.2082 183.414 88.3997 184.491 86.9388 185.206C85.4858 185.849 83.2482 186.007 80.2261 185.679L77.5277 185.386ZM93.4986 143.874L102.673 144.869C105.047 145.127 106.801 144.735 107.933 143.693C109.137 142.659 109.88 140.847 110.161 138.256C110.435 135.738 110.094 133.844 109.14 132.576C108.257 131.315 106.629 130.556 104.254 130.298L95.0797 129.303L93.4986 143.874Z" fill="white"/>
<path d="M439.195 289.858C435.275 290.546 431.696 290.88 428.459 290.861C425.235 290.912 422.443 290.705 420.082 290.237C417.722 289.77 415.832 289.256 414.411 288.698C413.3 288.231 412.374 287.769 411.632 287.312C410.878 286.783 410.426 286.09 410.276 285.235C410.126 284.379 410.039 283.256 410.015 281.864C410.049 280.388 410.156 278.9 410.333 277.399C410.582 275.885 410.945 274.609 411.424 273.57C411.891 272.459 412.48 271.841 413.193 271.716C414.12 271.553 415.77 271.741 418.142 272.28C420.502 272.747 423.261 273.182 426.418 273.583C429.562 273.913 432.738 273.796 435.946 273.233C437.443 272.97 438.701 272.602 439.72 272.129C440.74 271.656 441.436 271.02 441.81 270.219C442.255 269.406 442.371 268.394 442.159 267.182C442.021 266.398 441.646 265.728 441.035 265.174C440.494 264.608 439.591 264.068 438.325 263.556C437.047 262.972 435.257 262.404 432.956 261.853C430.713 261.218 427.863 260.469 424.405 259.607C422.091 258.984 419.836 258.278 417.639 257.488C415.502 256.614 413.505 255.494 411.649 254.13C409.78 252.695 408.176 250.882 406.836 248.692C405.484 246.431 404.52 243.661 403.944 240.382C403.231 236.318 403.408 232.723 404.476 229.596C405.543 226.469 407.204 223.79 409.457 221.557C411.782 219.312 414.473 217.48 417.531 216.061C420.66 214.63 423.9 213.62 427.251 213.032C428.819 212.757 430.548 212.563 432.44 212.452C434.331 212.34 436.205 212.342 438.062 212.457C439.991 212.559 441.753 212.764 443.351 213.071C445.032 213.437 446.398 213.896 447.45 214.446C448.561 214.912 449.197 215.609 449.36 216.535C449.485 217.248 449.53 218.343 449.495 219.819C449.519 221.211 449.413 222.699 449.177 224.284C448.928 225.797 448.571 227.109 448.104 228.22C447.709 229.318 447.12 229.936 446.336 230.073C445.623 230.198 444.403 230.155 442.675 229.944C441.007 229.649 439.024 229.446 436.726 229.335C434.416 229.153 431.943 229.293 429.305 229.756C427.523 230.069 426.128 230.498 425.122 231.042C424.102 231.515 423.435 232.11 423.12 232.826C422.792 233.472 422.716 234.294 422.892 235.292C423.142 236.717 423.883 237.8 425.115 238.539C426.335 239.206 427.862 239.747 429.698 240.159C431.522 240.5 433.471 240.93 435.546 241.447C438.145 242.02 440.798 242.693 443.506 243.467C446.273 244.157 448.882 245.205 451.334 246.612C453.773 247.947 455.865 249.821 457.611 252.233C459.429 254.633 460.688 257.829 461.389 261.821C462.153 266.17 462.013 269.979 460.97 273.248C459.999 276.505 458.393 279.286 456.152 281.59C453.97 283.81 451.385 285.623 448.399 287.029C445.471 288.352 442.403 289.294 439.195 289.858Z" fill="white"/>
<path d="M360.134 300.143C357.116 300.502 354.877 300.367 353.417 299.739C351.949 299.039 351.129 297.97 350.958 296.532L343.024 229.8C342.682 226.925 344.559 225.244 348.656 224.757L371.619 222.026C380.603 220.958 387.545 222.028 392.446 225.235C397.418 228.434 400.349 233.771 401.237 241.246C401.622 244.48 401.425 247.419 400.646 250.063C399.93 252.626 398.696 254.813 396.943 256.625C395.254 258.357 393.07 259.601 390.39 260.356L390.441 260.788C392.594 261.115 394.464 262.132 396.052 263.838C397.703 265.464 399.313 267.969 400.881 271.354L408.418 287.842C408.71 288.463 408.918 288.985 409.041 289.408C409.164 289.83 409.247 290.221 409.29 290.581C409.469 292.09 408.978 293.169 407.816 293.817C406.646 294.394 404.659 294.849 401.856 295.182L398.622 295.566C395.962 295.883 393.816 295.919 392.184 295.676C390.615 295.352 389.44 294.362 388.66 292.706L382.217 278.056C381.517 276.463 380.829 275.269 380.151 274.475C379.474 273.681 378.682 273.155 377.777 272.899C376.944 272.633 375.845 272.582 374.479 272.744L368.442 273.462L370.903 294.161C371.074 295.598 370.528 296.83 369.265 297.854C367.993 298.807 365.848 299.463 362.829 299.822L360.134 300.143ZM366.378 256.105L375.542 255.015C377.913 254.733 379.534 253.958 380.403 252.688C381.345 251.41 381.662 249.477 381.354 246.89C381.055 244.374 380.298 242.606 379.083 241.584C377.94 240.554 376.183 240.179 373.811 240.461L364.647 241.551L366.378 256.105Z" fill="white"/>
<path d="M306.539 304.616C294.542 305.27 285.293 302.475 278.792 296.233C272.291 289.99 268.694 280.509 268.002 267.79C267.309 255.07 269.856 245.255 275.641 238.344C281.426 231.433 290.317 227.651 302.314 226.997C314.238 226.348 323.451 229.145 329.952 235.387C336.453 241.629 340.05 251.11 340.742 263.83C341.435 276.55 338.888 286.365 333.103 293.276C327.318 300.187 318.464 303.967 306.539 304.616ZM305.53 286.079C310.806 285.792 314.583 283.955 316.864 280.569C319.212 277.107 320.198 271.907 319.82 264.969C319.438 257.959 317.894 252.896 315.188 249.782C312.553 246.663 308.598 245.248 303.323 245.535C298.047 245.822 294.233 247.661 291.88 251.051C289.528 254.44 288.542 259.641 288.924 266.651C289.302 273.589 290.846 278.651 293.556 281.838C296.263 284.953 300.254 286.366 305.53 286.079Z" fill="white"/>
<path d="M240.111 306.745C236.13 306.74 232.547 306.447 229.364 305.864C226.179 305.353 223.466 304.662 221.223 303.791C218.981 302.92 217.209 302.086 215.907 301.288C214.894 300.635 214.063 300.019 213.412 299.439C212.761 298.787 212.436 298.027 212.438 297.158C212.439 296.29 212.548 295.168 212.767 293.793C213.059 292.346 213.422 290.899 213.858 289.452C214.367 288.005 214.947 286.811 215.6 285.871C216.252 284.858 216.94 284.353 217.664 284.354C218.605 284.355 220.197 284.827 222.439 285.771C224.682 286.642 227.323 287.55 230.361 288.494C233.4 289.366 236.548 289.805 239.805 289.808C241.325 289.81 242.628 289.667 243.714 289.379C244.8 289.091 245.597 288.585 246.104 287.862C246.684 287.139 246.975 286.162 246.976 284.931C246.977 284.135 246.725 283.411 246.219 282.759C245.786 282.107 244.99 281.419 243.833 280.694C242.676 279.896 241.012 279.026 238.842 278.082C236.744 277.066 234.068 275.833 230.813 274.381C228.643 273.365 226.545 272.277 224.52 271.117C222.567 269.884 220.795 268.434 219.205 266.768C217.615 265.029 216.351 262.964 215.413 260.575C214.475 258.113 214.008 255.217 214.012 251.888C214.017 247.762 214.817 244.253 216.413 241.359C218.009 238.466 220.11 236.117 222.718 234.31C225.398 232.504 228.367 231.169 231.625 230.304C234.956 229.439 238.322 229.009 241.724 229.013C243.316 229.015 245.053 229.126 246.935 229.345C248.816 229.565 250.661 229.892 252.47 230.329C254.352 230.765 256.052 231.274 257.571 231.855C259.163 232.508 260.428 233.197 261.368 233.922C262.381 234.575 262.887 235.372 262.886 236.313C262.885 237.036 262.739 238.122 262.447 239.569C262.229 240.944 261.865 242.391 261.357 243.91C260.848 245.357 260.268 246.587 259.615 247.6C259.035 248.612 258.347 249.118 257.55 249.117C256.827 249.116 255.633 248.861 253.969 248.353C252.377 247.772 250.46 247.227 248.217 246.717C245.974 246.136 243.513 245.843 240.835 245.84C239.026 245.838 237.578 246.017 236.492 246.378C235.406 246.666 234.645 247.135 234.21 247.786C233.775 248.365 233.557 249.161 233.556 250.174C233.554 251.622 234.096 252.816 235.18 253.759C236.265 254.628 237.675 255.426 239.411 256.152C241.148 256.806 242.992 257.568 244.945 258.439C247.405 259.455 249.901 260.58 252.433 261.813C255.037 262.974 257.423 264.461 259.593 266.273C261.762 268.013 263.496 270.222 264.796 272.902C266.168 275.582 266.851 278.948 266.847 283.001C266.841 287.416 266.041 291.143 264.445 294.181C262.921 297.219 260.855 299.677 258.247 301.556C255.712 303.362 252.852 304.698 249.666 305.562C246.553 306.355 243.368 306.749 240.111 306.745Z" fill="white"/>
<path d="M185.817 305.531C181.84 305.355 178.273 304.907 175.117 304.188C171.958 303.541 169.277 302.734 167.074 301.767C164.871 300.8 163.136 299.89 161.87 299.037C160.886 298.342 160.082 297.69 159.457 297.083C158.835 296.403 158.543 295.63 158.581 294.762C158.62 293.894 158.778 292.778 159.056 291.414C159.409 289.981 159.834 288.551 160.332 287.124C160.902 285.7 161.534 284.533 162.226 283.621C162.922 282.638 163.631 282.162 164.354 282.194C165.294 282.236 166.864 282.776 169.064 283.815C171.267 284.782 173.866 285.803 176.861 286.877C179.86 287.879 182.986 288.452 186.24 288.596C187.758 288.663 189.066 288.576 190.164 288.335C191.261 288.094 192.079 287.623 192.617 286.922C193.228 286.225 193.56 285.262 193.614 284.032C193.649 283.237 193.428 282.503 192.951 281.829C192.546 281.16 191.781 280.437 190.656 279.663C189.534 278.817 187.91 277.875 185.782 276.839C183.73 275.734 181.109 274.387 177.919 272.796C175.795 271.688 173.746 270.511 171.772 269.264C169.875 267.949 168.167 266.424 166.65 264.691C165.136 262.885 163.962 260.768 163.127 258.34C162.296 255.84 161.954 252.927 162.101 249.601C162.284 245.48 163.234 242.008 164.953 239.186C166.672 236.364 168.873 234.107 171.556 232.415C174.311 230.725 177.335 229.519 180.627 228.795C183.992 228.075 187.373 227.789 190.771 227.94C192.362 228.01 194.093 228.195 195.963 228.496C197.834 228.796 199.663 229.203 201.451 229.716C203.312 230.234 204.989 230.815 206.482 231.461C208.044 232.182 209.279 232.925 210.187 233.689C211.17 234.385 211.641 235.203 211.6 236.143C211.568 236.866 211.375 237.944 211.022 239.377C210.744 240.741 210.319 242.172 209.745 243.668C209.175 245.091 208.542 246.295 207.847 247.279C207.224 248.265 206.514 248.741 205.719 248.706C204.996 248.674 203.814 248.368 202.173 247.788C200.608 247.139 198.716 246.512 196.497 245.907C194.281 245.229 191.835 244.831 189.16 244.713C187.352 244.633 185.898 244.75 184.797 245.063C183.7 245.304 182.92 245.741 182.457 246.372C181.998 246.932 181.746 247.717 181.701 248.73C181.637 250.176 182.127 251.393 183.17 252.381C184.216 253.297 185.591 254.154 187.294 254.954C189 255.682 190.811 256.523 192.725 257.477C195.138 258.598 197.583 259.829 200.06 261.17C202.611 262.442 204.932 264.03 207.021 265.934C209.114 267.765 210.751 270.047 211.935 272.78C213.19 275.516 213.728 278.909 213.549 282.958C213.354 287.369 212.394 291.058 210.669 294.024C209.016 296.994 206.846 299.361 204.16 301.126C201.549 302.822 198.634 304.033 195.414 304.76C192.27 305.418 189.07 305.675 185.817 305.531Z" fill="white"/>
<path d="M92.4028 298.975C80.3184 297.625 71.5129 293.328 65.9861 286.083C60.5312 278.846 58.5108 268.898 59.925 256.238C61.3391 243.579 65.5048 234.321 72.422 228.467C79.4111 222.62 88.9838 220.376 101.14 221.734C103.586 222.007 106.083 222.468 108.632 223.117C111.254 223.774 113.711 224.594 116.004 225.579C118.378 226.499 120.267 227.511 121.674 228.615C122.48 229.215 123.1 229.867 123.531 230.571C124.042 231.21 124.249 231.962 124.153 232.825C124.056 233.688 123.708 234.851 123.108 236.313C122.587 237.712 121.919 239.13 121.103 240.568C120.295 241.935 119.439 243.077 118.535 243.996C117.704 244.922 116.892 245.341 116.101 245.253C115.31 245.165 114.223 244.788 112.84 244.124C111.538 243.396 109.8 242.656 107.626 241.903C105.453 241.151 102.748 240.593 99.5107 240.232C95.7703 239.814 92.609 240.08 90.0268 241.03C87.4526 241.907 85.3893 243.752 83.8371 246.565C82.3568 249.386 81.3274 253.385 80.7489 258.564C80.1784 263.672 80.3039 267.764 81.1254 270.842C82.0187 273.927 83.62 276.218 85.929 277.714C88.2381 279.21 91.2628 280.167 95.0032 280.585C97.5208 280.866 99.7707 280.935 101.753 280.793C103.815 280.586 105.594 280.311 107.089 279.969C108.663 279.562 109.974 279.235 111.022 278.988C112.077 278.669 112.856 278.537 113.36 278.593C114.295 278.698 115.102 279.298 115.781 280.393C116.459 281.489 117.002 282.824 117.409 284.399C117.824 285.901 118.098 287.352 118.233 288.751C118.449 290.086 118.52 291.077 118.448 291.725C118.311 292.947 117.991 293.858 117.487 294.458C116.983 295.057 115.852 295.731 114.093 296.482C112.182 297.288 109.964 297.914 107.438 298.36C104.912 298.806 102.334 299.065 99.7041 299.135C97.1383 299.285 94.7045 299.232 92.4028 298.975Z" fill="white"/>
<path d="M25.9425 290.425C22.0083 289.818 18.5116 288.986 15.4526 287.928C12.3825 286.941 9.8049 285.848 7.71989 284.647C5.63489 283.447 4.00932 282.354 2.84318 281.368C1.94109 280.57 1.21231 279.835 0.656842 279.163C0.112407 278.42 -0.0935797 277.619 0.0388821 276.761C0.171344 275.903 0.449731 274.81 0.874056 273.484C1.38095 272.098 1.95939 270.722 2.60934 269.358C3.33083 268.005 4.08521 266.913 4.87249 266.082C5.67081 265.18 6.42763 264.784 7.14294 264.895C8.07285 265.038 9.57477 265.746 11.6487 267.018C13.7337 268.219 16.2067 269.516 19.0675 270.909C21.9393 272.231 24.9847 273.141 28.2036 273.637C29.7058 273.869 31.0154 273.925 32.1325 273.804C33.2496 273.684 34.1138 273.304 34.7249 272.666C35.4075 272.039 35.8426 271.118 36.0303 269.902C36.1517 269.115 36.0117 268.361 35.6104 267.64C35.2805 266.93 34.5986 266.129 33.5644 265.237C32.5414 264.274 31.0286 263.161 29.0262 261.9C27.1063 260.579 24.6473 258.954 21.6492 257.027C19.6578 255.694 17.7489 254.301 15.9227 252.848C14.179 251.334 12.6472 249.632 11.3274 247.744C10.0187 245.785 9.08147 243.553 8.51584 241.049C7.96124 238.473 7.93783 235.54 8.4456 232.25C9.0748 228.173 10.397 224.825 12.4122 222.206C14.4275 219.588 16.8606 217.583 19.7117 216.192C22.6343 214.813 25.7713 213.942 29.1227 213.58C32.5456 213.23 35.938 213.314 39.3 213.833C40.8737 214.075 42.5739 214.448 44.4006 214.949C46.2273 215.451 48.0016 216.054 49.7237 216.759C51.5172 217.476 53.121 218.236 54.5348 219.04C56.0092 219.926 57.1561 220.799 57.9756 221.658C58.8777 222.456 59.257 223.32 59.1135 224.25C59.0031 224.966 58.6945 226.016 58.1876 227.403C57.7632 228.729 57.1848 230.104 56.4523 231.529C55.7308 232.883 54.9709 234.01 54.1726 234.912C53.4458 235.825 52.689 236.221 51.9021 236.1C51.1868 235.99 50.0452 235.557 48.4772 234.802C46.9919 233.987 45.1791 233.158 43.0389 232.315C40.9097 231.401 38.5218 230.74 35.8752 230.331C34.0869 230.055 32.6287 230.013 31.5005 230.205C30.3834 230.326 29.5605 230.675 29.032 231.252C28.5145 231.758 28.1785 232.512 28.024 233.514C27.8032 234.944 28.1575 236.207 29.087 237.303C30.0275 238.327 31.3009 239.329 32.9073 240.309C34.5247 241.218 36.2329 242.25 38.0317 243.407C40.3093 244.783 42.606 246.273 44.9219 247.875C47.3204 249.417 49.4547 251.248 51.3246 253.367C53.2057 255.415 54.5857 257.862 55.4649 260.707C56.4155 263.564 56.5818 266.995 55.9637 271C55.2903 275.364 53.935 278.926 51.8977 281.688C49.9319 284.46 47.518 286.578 44.6558 288.04C41.8763 289.442 38.8466 290.329 35.5667 290.702C32.3695 291.014 29.1614 290.922 25.9425 290.425Z" fill="white"/>
<path d="M353.396 90.634C352.461 90.7404 351.314 90.5797 349.954 90.1518C348.594 89.7238 347.861 89.0424 347.754 88.1076C347.721 87.8199 347.788 87.4481 347.955 86.992C348.05 86.5442 348.204 85.9803 348.418 85.3003C348.79 84.0924 349.198 82.5526 349.64 80.6811C350.155 78.8014 350.512 76.5025 350.713 73.7844C350.977 70.9862 350.9 67.7533 350.482 64.0857C350.294 62.4317 350.734 61.1796 351.803 60.3295C352.944 59.4711 354.772 58.8987 357.289 58.6121L358.8 58.4402C361.317 58.1536 363.191 58.3043 364.424 58.8925C365.728 59.4724 366.475 60.5894 366.663 62.2434C367.023 65.4076 366.772 68.6413 365.91 71.9447C365.04 75.1762 363.853 78.1887 362.35 80.9823C360.847 83.7759 359.282 86.0301 357.656 87.745C356.039 89.5318 354.619 90.4948 353.396 90.634Z" fill="white"/>
<path d="M300.133 81.4241C297.102 81.6541 294.871 81.4241 293.44 80.7343C292.003 79.9723 291.229 78.8696 291.12 77.4262L286.044 10.5241C285.934 9.0807 286.535 7.91004 287.846 7.01212C289.152 6.04204 291.32 5.44201 294.351 5.21204L297.058 5.0067C300.089 4.77672 302.323 5.04274 303.76 5.80475C305.191 6.49459 305.962 7.56121 306.071 9.00462L308.018 34.6612L308.451 34.6284L320.794 7.88759C321.54 6.23413 322.462 5.00274 323.562 4.19343C324.729 3.30647 326.575 2.76716 329.101 2.57552L334.839 2.1402C337.22 1.95951 338.972 2.08069 340.093 2.50374C341.286 2.92133 341.923 3.6714 342.005 4.75396C342.049 5.33132 341.924 6.06671 341.628 6.96014C341.4 7.77592 341.035 8.7109 340.535 9.7651L323.27 44.8274L322.465 34.2184L346.632 71.4724C347.12 72.1612 347.496 72.8222 347.762 73.4553C348.023 74.0162 348.172 74.5493 348.21 75.0545C348.287 76.0649 347.764 76.8304 346.642 77.351C345.515 77.7995 343.761 78.1141 341.379 78.2948L335.1 78.7711C332.502 78.9683 330.531 78.8274 329.189 78.3486C327.846 77.8698 326.761 76.9722 325.936 75.6557L309.535 48.9181L309.102 48.951L311.147 75.9067C311.257 77.3501 310.659 78.5568 309.353 79.5269C308.042 80.4248 305.871 80.9888 302.84 81.2187L300.133 81.4241Z" fill="white"/>
<path d="M259.135 83.7034C246.978 83.9563 237.683 80.8557 231.251 74.4017C224.891 67.9462 221.578 58.3505 221.313 45.6148C221.049 32.879 223.959 23.1539 230.045 16.4395C236.204 9.72359 245.398 6.23846 257.627 5.98409C260.087 5.93292 262.624 6.06115 265.236 6.36877C267.921 6.6749 270.465 7.16493 272.868 7.83889C275.342 8.43897 277.349 9.19357 278.888 10.1027C279.767 10.5911 280.466 11.1557 280.986 11.7965C281.577 12.3633 281.882 13.0809 281.9 13.9493C281.918 14.8176 281.726 16.0161 281.323 17.5448C280.991 18.9995 280.516 20.4935 279.896 22.0266C279.275 23.4874 278.577 24.7326 277.802 25.7623C277.099 26.7904 276.35 27.3127 275.554 27.3293C274.758 27.3458 273.631 27.1159 272.173 26.6395C270.786 26.0892 268.966 25.5841 266.712 25.1242C264.459 24.6643 261.704 24.4683 258.447 24.536C254.684 24.6143 251.586 25.294 249.151 26.5754C246.715 27.7844 244.912 29.8851 243.744 32.8775C242.648 35.8684 242.154 39.9689 242.262 45.179C242.369 50.3167 243.032 54.357 244.252 57.2998C245.544 60.241 247.433 62.3012 249.919 63.4801C252.404 64.6591 255.529 65.2095 259.292 65.1312C261.824 65.0785 264.064 64.851 266.01 64.4485C268.027 63.9722 269.754 63.4657 271.191 62.9291C272.698 62.3186 273.955 61.8219 274.96 61.439C275.964 60.9838 276.72 60.7509 277.226 60.7403C278.167 60.7208 279.046 61.2093 279.863 62.2058C280.68 63.2023 281.394 64.4543 282.004 65.9619C282.613 67.3971 283.077 68.7991 283.395 70.168C283.784 71.463 283.985 72.4361 283.999 73.0874C284.024 74.3175 283.827 75.2628 283.406 75.923C282.985 76.5833 281.953 77.4012 280.308 78.3765C278.52 79.4272 276.403 80.3399 273.958 81.1147C271.513 81.8895 268.991 82.4849 266.394 82.9009C263.87 83.3878 261.451 83.6553 259.135 83.7034Z" fill="white"/>
<path d="M103.297 76.1871C100.27 75.9079 98.1084 75.3087 96.8122 74.3896C95.5226 73.3984 94.9443 72.1821 95.0772 70.7407L101.25 3.82191C101.516 0.939031 103.703 -0.312924 107.811 0.0660438L130.838 2.19025C139.847 3.02132 146.413 5.51684 150.536 9.67679C154.731 13.8434 156.483 19.6744 155.791 27.1699C155.492 30.4131 154.685 33.2461 153.372 35.6689C152.137 38.0263 150.473 39.908 148.381 41.3141C146.367 42.6547 143.971 43.415 141.193 43.5947L141.153 44.0272C143.19 44.7966 144.806 46.1813 146.003 48.1815C147.278 50.1163 148.329 52.9026 149.157 56.5405L153.084 74.2383C153.241 74.9069 153.335 75.4607 153.367 75.8998C153.4 76.3389 153.399 76.7386 153.366 77.099C153.226 78.6125 152.52 79.565 151.249 79.9565C149.984 80.2759 147.946 80.3059 145.135 80.0466L141.892 79.7474C139.225 79.5014 137.119 79.0891 135.573 78.5104C134.106 77.8663 133.164 76.6528 132.747 74.8698L129.505 59.1978C129.153 57.4936 128.729 56.1825 128.232 55.2644C127.735 54.3464 127.071 53.6673 126.239 53.2271C125.48 52.7937 124.415 52.5137 123.046 52.3874L116.992 51.8289L115.077 72.5857C114.944 74.0271 114.153 75.1171 112.704 75.8556C111.262 76.5221 109.027 76.7157 106 76.4365L103.297 76.1871ZM118.598 34.4236L127.787 35.2713C130.165 35.4907 131.912 35.0703 133.027 34.0103C134.215 32.9568 134.928 31.1328 135.168 28.5382C135.4 26.0157 135.029 24.128 134.055 22.8752C133.152 21.6289 131.511 20.8961 129.133 20.6767L119.944 19.829L118.598 34.4236Z" fill="white"/>
</svg>
