<svg width="197" height="19" viewBox="0 0 197 19" fill="none" xmlns="http://www.w3.org/2000/svg">
<path d="M1.41383 14.007C0.921982 13.9688 0.568228 13.8745 0.352571 13.724C0.136915 13.5735 0.0383827 13.3786 0.0569749 13.1393L1.02997 0.617056C1.04959 0.364484 1.17705 0.187158 1.41233 0.0850782C1.64864 -0.030295 2.01272 -0.0688729 2.50458 -0.0306556L3.06289 0.0127262C3.36864 0.0364829 3.61301 0.0755312 3.79602 0.129871C3.99232 0.185245 4.15945 0.271786 4.29741 0.389494C4.43641 0.493908 4.57024 0.664789 4.69891 0.902137L8.33418 7.0422C8.53641 7.36551 8.72941 7.72153 8.91318 8.11027C9.09798 8.48571 9.24091 8.79772 9.34195 9.0463L9.42326 9.03255C9.40301 8.77688 9.39405 8.46191 9.39638 8.08763C9.41201 7.71439 9.43377 7.34831 9.46166 6.98939L9.90322 1.30652C9.92181 1.06724 10.0493 0.889913 10.2856 0.774539C10.5219 0.659166 10.886 0.620588 11.3778 0.658805L11.7367 0.686694C12.2419 0.725944 12.5956 0.820298 12.798 0.969757C13.0137 1.12025 13.1122 1.31513 13.0936 1.55441L12.1206 14.0767C12.102 14.3159 11.9746 14.4933 11.7383 14.6086C11.5152 14.7251 11.1511 14.7636 10.646 14.7244L10.0877 14.681C9.80853 14.6593 9.57028 14.6274 9.37295 14.5853C9.18994 14.531 9.02894 14.4516 8.88995 14.3472C8.76528 14.2305 8.64422 14.0673 8.52678 13.8576L4.81795 7.63158C4.61779 7.28169 4.42531 6.91902 4.2405 6.54358C4.0557 6.16813 3.91277 5.85612 3.81173 5.60755L3.73042 5.62129C3.75067 5.87696 3.75298 6.19142 3.73736 6.56466C3.73502 6.93894 3.71939 7.31219 3.69047 7.6844L3.24736 13.3872C3.22877 13.6265 3.10131 13.8038 2.865 13.9192C2.64198 14.0356 2.27789 14.0742 1.77275 14.0349L1.41383 14.007ZM19.0715 15.4453C17.2758 15.3223 15.9774 14.7656 15.1766 13.7752C14.39 12.7724 14.0545 11.4263 14.1702 9.73696C14.2532 8.52646 14.5282 7.53627 14.9952 6.7664C15.4623 5.99652 16.0819 5.43756 16.8542 5.08953C17.6397 4.74241 18.538 4.60348 19.549 4.67274C20.5998 4.74474 21.4432 5.01635 22.0792 5.48759C22.716 5.94552 23.1686 6.55788 23.4368 7.32467C23.705 8.09146 23.8045 8.98034 23.7352 9.99131C23.7216 10.1908 23.6338 10.3987 23.472 10.6148C23.3235 10.8318 23.144 11.0133 22.9335 11.1592C22.724 11.2919 22.5327 11.3523 22.3598 11.3405L17.5112 11.0083C17.4798 11.661 17.6617 12.1278 18.0567 12.4088C18.4527 12.6765 18.93 12.8295 19.4887 12.8678C19.9543 12.8997 20.3769 12.8752 20.7567 12.7943C21.1497 12.7143 21.4825 12.6369 21.7549 12.562C22.0406 12.488 22.25 12.4556 22.383 12.4647C22.5559 12.4765 22.7012 12.6001 22.8187 12.8353C22.9362 13.0706 23.0249 13.3372 23.0846 13.6354C23.1586 13.9211 23.1901 14.1438 23.1792 14.3034C23.1664 14.4896 23.0344 14.661 22.7831 14.8175C22.5452 14.975 22.2221 15.1065 21.8139 15.2122C21.419 15.3188 20.9799 15.3889 20.4964 15.4226C20.0254 15.4706 19.5504 15.4781 19.0715 15.4453ZM17.6334 8.93177L20.6264 9.13682C20.6719 8.47171 20.5846 7.99128 20.3643 7.69554C20.144 7.39979 19.7877 7.23505 19.2955 7.20133C19.0428 7.18402 18.7935 7.21372 18.5477 7.29043C18.3161 7.35475 18.118 7.51492 17.9535 7.77094C17.7898 8.01365 17.6831 8.4006 17.6334 8.93177ZM29.4377 16.1059C27.7873 16.0072 26.5574 15.4662 25.748 14.4828C24.9386 13.4994 24.5856 12.1425 24.6891 10.4123C24.7933 8.66875 25.3055 7.36367 26.2255 6.49704C27.1456 5.63042 28.4308 5.24646 30.0812 5.34516C31.7316 5.44385 32.9552 5.97785 33.7521 6.94715C34.5623 7.91725 34.9153 9.27407 34.811 11.0176C34.7075 12.7479 34.202 14.0534 33.2945 14.9341C32.387 15.8148 31.1014 16.2054 29.4377 16.1059ZM29.5965 13.4507C30.1821 13.4857 30.6211 13.2916 30.9136 12.8683C31.206 12.445 31.3805 11.7608 31.437 10.8159C31.4927 9.88418 31.4006 9.19078 31.1607 8.73565C30.9208 8.28051 30.508 8.03543 29.9224 8.00041C29.3235 7.96459 28.8778 8.15833 28.5853 8.58163C28.2929 9.00493 28.1188 9.68241 28.0631 10.6141C28.0065 11.5591 28.0982 12.2591 28.3382 12.7142C28.5781 13.1694 28.9975 13.4149 29.5965 13.4507ZM41.238 16.6482C40.7851 16.6271 40.4537 16.5782 40.2437 16.5017C40.0344 16.4118 39.9331 16.2936 39.9399 16.1471C39.9437 16.0672 39.9677 15.9815 40.012 15.8902C40.0563 15.7988 40.1216 15.6884 40.2077 15.559L44.5174 9.45348L41.2645 3.65531C41.1788 3.49113 41.1117 3.35452 41.0634 3.24548C41.0158 3.12312 40.9938 3.02198 40.9975 2.94207C41.005 2.78224 41.1165 2.68067 41.3321 2.63736C41.561 2.59466 41.9086 2.58421 42.3747 2.60599L43.5135 2.65921C43.8598 2.67539 44.1446 2.72207 44.3679 2.79925C44.5912 2.87642 44.7641 3.03133 44.8867 3.26398L46.7077 6.71274L48.9433 3.43352C49.1143 3.20126 49.3076 3.06346 49.5232 3.02015C49.7521 2.97745 50.0397 2.9642 50.386 2.98038L51.265 3.02146C51.7312 3.04324 52.0696 3.08575 52.2802 3.14899C52.4908 3.21222 52.5927 3.31709 52.5858 3.4636C52.5821 3.54351 52.5508 3.64216 52.4919 3.75954C52.4336 3.8636 52.3472 3.99971 52.2326 4.16788L48.3504 9.69267L51.9549 16.1079C52.0159 16.2309 52.0638 16.3466 52.0988 16.455C52.1344 16.5501 52.1507 16.631 52.1476 16.6976C52.1401 16.8574 52.0213 16.972 51.7911 17.0413C51.5749 17.0979 51.247 17.116 50.8075 17.0954L49.7087 17.0441C49.3624 17.0279 49.0776 16.9812 48.8543 16.9041C48.6443 16.8275 48.4714 16.6726 48.3355 16.4393L46.162 12.3935L43.5198 16.2343C43.3614 16.4805 43.1678 16.625 42.9389 16.6677C42.7239 16.6977 42.4433 16.7046 42.097 16.6884L41.238 16.6482ZM57.9938 17.3727C57.5674 17.359 57.269 17.3027 57.0988 17.2038C56.9286 17.105 56.846 16.9756 56.8512 16.8156C56.8546 16.709 56.878 16.6031 56.9214 16.4977C56.9515 16.392 56.9818 16.2796 57.0123 16.1605L61.3621 4.1142C61.4648 3.82402 61.6243 3.63572 61.8405 3.5493C62.0568 3.46288 62.3515 3.42567 62.7246 3.43768L64.3238 3.48915C64.7102 3.50159 65.0019 3.55767 65.1988 3.65739C65.409 3.75754 65.5561 3.95571 65.6399 4.25189L69.206 16.553C69.2555 16.6746 69.2851 16.789 69.295 16.896C69.3182 17.0035 69.3281 17.1105 69.3247 17.2171C69.3196 17.3771 69.2355 17.5011 69.0726 17.5892C68.923 17.6778 68.6483 17.7156 68.2485 17.7028L67.0891 17.6655C66.7426 17.6543 66.4641 17.6053 66.2534 17.5185C66.0428 17.4317 65.9015 17.2604 65.8297 17.0046L63.6825 8.49111C63.6361 8.27618 63.5896 8.06124 63.5432 7.8463C63.4967 7.63136 63.457 7.41663 63.4238 7.20212L63.3439 7.19955C63.297 7.41149 63.2435 7.62321 63.1834 7.83472C63.1232 8.04622 63.063 8.25773 63.0029 8.46924L60.2526 16.8251C60.1778 17.0761 60.0459 17.2386 59.8567 17.3126C59.6809 17.387 59.4131 17.4184 59.0533 17.4068L57.9938 17.3727ZM59.7198 14.7269L59.8086 11.9683L66.6451 12.1883L66.5563 14.9469L59.7198 14.7269ZM71.5733 17.7863C71.0935 17.7756 70.7416 17.7077 70.5176 17.5827C70.3073 17.4446 70.205 17.249 70.2106 16.9957L70.3502 10.7372C70.3641 10.1107 70.3548 9.6304 70.3223 9.29626C70.3031 8.96242 70.2754 8.7084 70.2393 8.53422C70.2165 8.36034 70.2067 8.20008 70.21 8.05345C70.2135 7.89349 70.3032 7.76212 70.4788 7.65935C70.6545 7.55657 70.8696 7.48134 71.124 7.43367C71.3918 7.3863 71.6591 7.35892 71.926 7.35153C72.1932 7.33082 72.4268 7.32269 72.6268 7.32715C72.88 7.33279 73.0591 7.3768 73.164 7.45915C73.2824 7.52848 73.3661 7.66371 73.415 7.86485C73.4775 8.05296 73.5313 8.32756 73.5766 8.68866C73.8365 8.40105 74.1288 8.1475 74.4538 7.92802C74.7924 7.69551 75.1563 7.52358 75.5456 7.41223C75.9351 7.28755 76.3432 7.22997 76.7697 7.23948C77.4096 7.25375 77.9403 7.37894 78.3618 7.61506C78.7833 7.85118 79.0956 8.19823 79.2988 8.65621C79.5156 9.10115 79.6167 9.65021 79.6021 10.3034L79.4483 17.2017C79.4427 17.4549 79.3317 17.6458 79.1155 17.7744C78.8995 17.8896 78.5449 17.9417 78.0517 17.9307L77.4919 17.9182C77.012 17.9075 76.6601 17.8397 76.4361 17.7146C76.2258 17.5766 76.1235 17.3809 76.1292 17.1277L76.2665 10.9692C76.2739 10.6359 76.1996 10.3809 76.0435 10.204C75.9007 10.0275 75.6494 9.93517 75.2895 9.92715C75.1028 9.92299 74.9087 9.95867 74.7069 10.0342C74.5055 10.0964 74.3166 10.1922 74.1404 10.3216C73.9644 10.4377 73.8079 10.5809 73.6707 10.7513L73.5298 17.0697C73.5242 17.323 73.4065 17.5137 73.177 17.642C72.961 17.7572 72.6131 17.8094 72.1332 17.7987L71.5733 17.7863ZM84.7616 18.1728C84.1217 18.1625 83.577 18.0337 83.1276 17.7865C82.6784 17.5259 82.3376 17.1603 82.1051 16.6899C81.8727 16.2194 81.7619 15.6442 81.7728 14.9643L81.8481 10.2849L81.3482 10.2769C80.8682 10.2691 80.6343 9.89199 80.6463 9.14542L80.6553 8.58549C80.6671 7.85226 80.9129 7.4895 81.3929 7.49722L81.8928 7.50526L82.322 5.69193C82.3794 5.43949 82.4957 5.26133 82.6707 5.15747C82.8593 5.04049 83.1402 4.985 83.5135 4.991L84.0534 4.99969C84.48 5.00655 84.7856 5.07814 84.9701 5.21446C85.1681 5.33766 85.2652 5.51925 85.2613 5.75922L85.2324 7.55898L86.2323 7.57507C86.7122 7.58279 86.9463 7.95327 86.9345 8.68651L86.9255 9.24643C86.9135 9.993 86.6675 10.3624 86.1875 10.3547L85.1877 10.3386L85.1172 14.7181C85.1129 14.9847 85.1498 15.1786 85.2279 15.2999C85.3193 15.4214 85.4716 15.4839 85.6849 15.4873C85.8849 15.4905 86.0453 15.4664 86.1661 15.415C86.2872 15.3503 86.3877 15.3186 86.4677 15.3199C86.561 15.3214 86.6464 15.4027 86.7238 15.564C86.8015 15.7119 86.8651 15.8997 86.9148 16.1272C86.9647 16.3413 87.0015 16.5419 87.0251 16.729C87.0621 16.9163 87.0801 17.0433 87.079 17.1099C87.076 17.2966 86.9598 17.4747 86.7304 17.6444C86.5009 17.814 86.2122 17.9428 85.864 18.0305C85.5157 18.1316 85.1482 18.179 84.7616 18.1728ZM89.5394 18.1081C89.0595 18.1047 88.7065 18.0489 88.4806 17.9406C88.268 17.8325 88.1625 17.6717 88.164 17.4584L88.2292 8.19863C88.2307 7.9853 88.3385 7.82606 88.5526 7.7209C88.78 7.61583 89.1337 7.56499 89.6137 7.56837L90.1737 7.57231C90.6537 7.57569 91 7.63147 91.2125 7.73963C91.4384 7.84789 91.5506 8.00869 91.5491 8.22202L91.4839 17.4818C91.4824 17.6951 91.3679 17.8543 91.1405 17.9594C90.9265 18.0645 90.5794 18.1154 90.0994 18.1121L89.5394 18.1081ZM89.9006 6.59036C89.3006 6.58614 88.8677 6.52309 88.6019 6.40121C88.3362 6.266 88.2042 6.0784 88.2058 5.83841L88.2154 4.47844C88.2171 4.23845 88.3517 4.05939 88.6192 3.94127C88.8868 3.80982 89.3206 3.74621 89.9206 3.75043C90.5206 3.75466 90.9534 3.82438 91.2192 3.95959C91.485 4.08146 91.617 4.2624 91.6153 4.50239L91.6058 5.86236C91.6041 6.10235 91.4694 6.28807 91.2018 6.41953C90.9343 6.53764 90.5006 6.59459 89.9006 6.59036ZM93.775 13.9557C93.375 13.9535 93.1768 13.6191 93.1804 12.9525L93.1822 12.6125C93.1858 11.9458 93.3876 11.6136 93.7876 11.6157L97.5876 11.6363C97.9876 11.6384 98.1858 11.9729 98.1822 12.6395L98.1803 12.9795C98.1767 13.6462 97.9749 13.9784 97.5749 13.9762L93.775 13.9557ZM101.419 18.1455C100.926 18.1489 100.565 18.0847 100.338 17.953C100.11 17.8212 99.9954 17.6353 99.9937 17.3954L99.9066 4.83566C99.9049 4.59566 100.017 4.40821 100.243 4.27331C100.468 4.13841 100.828 4.06924 101.321 4.06582L102.161 4.05999C102.561 4.05722 102.882 4.10833 103.122 4.21333C103.376 4.31823 103.584 4.50346 103.746 4.76901L106.701 9.74863C106.809 9.92122 106.91 10.1072 107.005 10.3065C107.113 10.5058 107.194 10.6719 107.248 10.8049C107.314 10.6577 107.393 10.4838 107.485 10.2832C107.59 10.0691 107.682 9.8885 107.761 9.74128L110.626 4.74128C110.798 4.46008 110.996 4.26536 111.222 4.15713C111.461 4.0488 111.788 3.9932 112.201 3.99033L113.061 3.98436C113.568 3.98085 113.928 4.04501 114.142 4.17686C114.37 4.30862 114.485 4.4945 114.486 4.73449L114.573 17.2942C114.575 17.5342 114.463 17.7216 114.237 17.8565C114.025 17.9913 113.665 18.0605 113.159 18.064L112.799 18.0665C112.305 18.0699 111.945 18.0058 111.717 17.874C111.49 17.7423 111.375 17.5564 111.373 17.3164L111.331 11.1365C111.329 10.8565 111.333 10.5832 111.345 10.3164C111.356 10.0363 111.368 9.80292 111.38 9.61616L111.3 9.59672C111.234 9.73051 111.148 9.87777 111.043 10.0385C110.951 10.1992 110.872 10.3464 110.806 10.4802L108.731 14.0947C108.599 14.3222 108.434 14.4834 108.234 14.5781C108.048 14.6727 107.795 14.7212 107.475 14.7234L107.055 14.7263C106.735 14.7285 106.475 14.6837 106.274 14.5917C106.087 14.4997 105.926 14.3408 105.791 14.115L103.666 10.5297C103.599 10.3968 103.511 10.2508 103.403 10.0915C103.309 9.93217 103.228 9.78607 103.16 9.6532L103.08 9.67375C103.095 9.86032 103.11 10.0936 103.125 10.3735C103.14 10.64 103.149 10.9133 103.151 11.1933L103.194 17.3732C103.195 17.6131 103.083 17.8006 102.858 17.9355C102.645 18.0703 102.286 18.1395 101.779 18.143L101.419 18.1455ZM117.813 17.9655C117.173 17.9779 116.848 17.7175 116.838 17.1843L116.597 4.78663C116.586 4.2534 116.901 3.98056 117.541 3.96812L124.84 3.82622C125.32 3.81689 125.567 4.17882 125.581 4.91202L125.597 5.75186C125.612 6.49838 125.379 6.87631 124.899 6.88564L120.06 6.97972L120.104 9.2193L124.423 9.13533C124.889 9.12625 125.13 9.49498 125.144 10.2415L125.16 11.0614C125.175 11.8079 124.949 12.1857 124.482 12.1947L120.163 12.2787L120.213 14.8582L125.072 14.7638C125.552 14.7544 125.799 15.123 125.814 15.8696L125.83 16.7094C125.845 17.4426 125.612 17.8139 125.132 17.8232L117.813 17.9655ZM132.008 17.6724C131.622 17.684 131.32 17.6464 131.104 17.5595C130.902 17.4722 130.749 17.2767 130.647 16.973L126.303 4.93807C126.273 4.81893 126.243 4.70645 126.213 4.60063C126.17 4.49521 126.146 4.38919 126.143 4.28258C126.138 4.12265 126.215 3.99364 126.372 3.89554C126.529 3.79744 126.807 3.74238 127.207 3.73036L128.387 3.69491C128.733 3.68449 129.014 3.71606 129.23 3.78961C129.445 3.84984 129.597 4.01202 129.685 4.27617L132.704 14.1899L132.784 14.1875L135.202 4.11031C135.261 3.85509 135.383 3.68469 135.567 3.59912C135.751 3.51355 136.016 3.46555 136.363 3.45514L137.462 3.42208C137.889 3.40926 138.19 3.4469 138.366 3.53498C138.542 3.62306 138.633 3.74707 138.638 3.90699C138.641 4.01361 138.631 4.12063 138.607 4.22805C138.584 4.33547 138.547 4.44996 138.497 4.5715L134.905 16.845C134.821 17.1543 134.673 17.3588 134.463 17.4585C134.266 17.5579 133.974 17.6133 133.587 17.6249L132.008 17.6724ZM145.866 17.122C145.226 17.1527 144.894 16.9017 144.868 16.369L144.273 3.98327C144.247 3.45055 144.554 3.16883 145.194 3.13811L149.688 2.92209C151.819 2.81968 153.472 3.33424 154.648 4.46578C155.824 5.59731 156.467 7.30842 156.577 9.59911C156.686 11.8765 156.21 13.6414 155.149 14.8937C154.088 16.1328 152.491 16.8035 150.36 16.9059L145.866 17.122ZM148.176 13.9474L150.214 13.8495C151.226 13.8008 151.962 13.4384 152.424 12.7621C152.899 12.0852 153.104 11.0875 153.041 9.76905C152.978 8.45057 152.677 7.4772 152.14 6.84894C151.616 6.22004 150.847 5.92992 149.835 5.97856L147.798 6.07649L148.176 13.9474ZM163.557 16.3566C161.76 16.4659 160.401 16.0811 159.479 15.2021C158.57 14.309 158.064 13.0174 157.961 11.3272C157.887 10.1161 158.032 9.09871 158.396 8.27508C158.76 7.45146 159.303 6.81733 160.024 6.37272C160.758 5.92729 161.631 5.67381 162.643 5.61225C163.694 5.54827 164.565 5.70898 165.257 6.09436C165.947 6.46644 166.475 7.0154 166.84 7.74125C167.204 8.4671 167.418 9.33576 167.479 10.3472C167.491 10.5469 167.431 10.7642 167.298 10.9994C167.179 11.2337 167.024 11.4368 166.835 11.6087C166.644 11.7672 166.462 11.8518 166.289 11.8623L161.438 12.1575C161.491 12.8088 161.731 13.2484 162.159 13.4761C162.586 13.6906 163.08 13.7808 163.639 13.7468C164.104 13.7184 164.52 13.6397 164.886 13.5105C165.266 13.3806 165.586 13.2609 165.846 13.1516C166.12 13.0414 166.324 12.9823 166.457 12.9742C166.63 12.9636 166.79 13.0674 166.937 13.2856C167.083 13.5037 167.206 13.7568 167.303 14.0447C167.414 14.3185 167.473 14.5353 167.483 14.695C167.495 14.8813 167.386 15.0683 167.157 15.2559C166.941 15.4427 166.638 15.6147 166.246 15.7721C165.868 15.9287 165.442 16.0548 164.967 16.1505C164.506 16.2587 164.036 16.3274 163.557 16.3566ZM161.292 10.0826L164.286 9.90034C164.246 9.23491 164.097 8.76974 163.84 8.50483C163.584 8.23993 163.209 8.12246 162.717 8.15242C162.464 8.16781 162.221 8.22937 161.987 8.33711C161.765 8.43073 161.59 8.61509 161.459 8.89017C161.328 9.15194 161.273 9.54941 161.292 10.0826ZM170.795 15.7597C170.317 15.7961 169.96 15.7631 169.725 15.6606C169.502 15.5439 169.381 15.3592 169.362 15.1066L168.887 8.86462C168.839 8.23976 168.783 7.76266 168.718 7.43332C168.666 7.10297 168.614 6.8529 168.561 6.6831C168.521 6.51228 168.495 6.35376 168.484 6.20751C168.472 6.04797 168.548 5.90845 168.713 5.78894C168.878 5.66944 169.085 5.57349 169.333 5.50109C169.595 5.42769 169.858 5.37422 170.123 5.3407C170.387 5.29388 170.619 5.26289 170.818 5.24772C171.071 5.22851 171.253 5.25474 171.366 5.32642C171.49 5.38379 171.587 5.51016 171.655 5.70554C171.736 5.88662 171.817 6.15461 171.897 6.50953C172.077 6.24175 172.312 5.98323 172.6 5.73396C172.888 5.47139 173.219 5.25232 173.593 5.07674C173.981 4.90016 174.407 4.79417 174.873 4.75877C175.338 4.72338 175.755 4.7585 176.124 4.86414C176.507 4.96878 176.827 5.13829 177.086 5.37269C177.357 5.59279 177.558 5.87162 177.691 6.2092C177.854 5.88926 178.086 5.5975 178.387 5.33392C178.686 5.05704 179.03 4.83031 179.418 4.65373C179.818 4.46284 180.251 4.34969 180.716 4.3143C181.354 4.26575 181.894 4.33831 182.337 4.53196C182.793 4.7246 183.145 5.03884 183.392 5.47469C183.651 5.89623 183.806 6.43272 183.855 7.08417L184.378 13.9643C184.398 14.2169 184.306 14.4178 184.103 14.5669C183.9 14.7027 183.552 14.7894 183.06 14.8268L182.502 14.8693C182.023 14.9057 181.666 14.8726 181.431 14.7702C181.208 14.6534 181.087 14.4687 181.068 14.2161L180.601 8.07386C180.575 7.74149 180.476 7.49495 180.304 7.33426C180.131 7.17356 179.865 7.10686 179.506 7.13417C179.36 7.14529 179.203 7.18402 179.034 7.25034C178.877 7.30237 178.723 7.38762 178.572 7.50612C178.434 7.6236 178.29 7.76153 178.142 7.91991C178.007 8.07728 177.887 8.25358 177.781 8.44881L177.677 6.81202C177.781 6.95119 177.859 7.10567 177.912 7.27547C177.978 7.43096 178.017 7.59513 178.03 7.76796L178.535 14.4088C178.555 14.6614 178.456 14.8628 178.24 15.0129C178.037 15.1487 177.696 15.2349 177.217 15.2713L176.659 15.3137C176.167 15.3512 175.81 15.3181 175.588 15.2147C175.365 15.0979 175.244 14.9132 175.225 14.6606L174.758 8.51834C174.732 8.18597 174.633 7.93943 174.461 7.77873C174.288 7.61804 174.022 7.55134 173.663 7.57864C173.477 7.5928 173.294 7.64685 173.114 7.74077C172.933 7.82141 172.761 7.93477 172.598 8.08087C172.448 8.21266 172.313 8.37003 172.193 8.55298L172.672 14.8548C172.691 15.1074 172.593 15.3087 172.377 15.4589C172.174 15.5947 171.832 15.6808 171.354 15.7173L170.795 15.7597ZM191.014 14.2578C189.368 14.4075 188.071 14.0568 187.123 13.2058C186.175 12.3547 185.623 11.0661 185.466 9.33989C185.308 7.6004 185.619 6.23331 186.399 5.23862C187.179 4.24392 188.392 3.67173 190.038 3.52203C191.685 3.37233 192.975 3.71696 193.908 4.55592C194.854 5.39367 195.406 6.68229 195.565 8.42178C195.722 10.148 195.417 11.5145 194.652 12.5213C193.887 13.528 192.674 14.1068 191.014 14.2578ZM190.773 11.6087C191.358 11.5556 191.763 11.2978 191.988 10.8355C192.214 10.3732 192.284 9.6706 192.198 8.72782C192.114 7.79832 191.919 7.12655 191.614 6.7125C191.308 6.29845 190.863 6.11799 190.279 6.17111C189.682 6.22543 189.27 6.48376 189.044 6.9461C188.818 7.40844 188.748 8.10436 188.832 9.03386C188.918 9.97664 189.114 10.655 189.419 11.0691C189.724 11.4831 190.176 11.663 190.773 11.6087Z" fill="white"/>
</svg>
