<svg width="52" height="35" viewBox="0 0 52 35" fill="none" xmlns="http://www.w3.org/2000/svg">
<path d="M40.9151 34.3511C39.3159 34.3511 37.8766 34.2231 36.5972 33.9673C35.3498 33.7434 34.2783 33.4395 33.3828 33.0557C32.4872 32.6719 31.7516 32.3041 31.1759 31.9523C30.7281 31.6644 30.3603 31.3925 30.0724 31.1367C29.7845 30.8488 29.6406 30.513 29.6406 30.1292C29.6406 29.7453 29.6886 29.3136 29.7845 28.8338C29.9125 28.322 30.0724 27.8263 30.2643 27.3465C30.4882 26.8668 30.7121 26.467 30.936 26.1471C31.1919 25.8273 31.4478 25.6674 31.7036 25.6674C31.9915 25.6674 32.5512 25.8752 33.3828 26.291C34.2463 26.6749 35.2539 27.0747 36.4053 27.4905C37.5887 27.8743 38.8201 28.0662 40.0995 28.0662C41.0271 28.0662 41.7787 27.9542 42.3544 27.7303C42.9621 27.5064 43.4099 27.1546 43.6977 26.6749C44.0176 26.1951 44.1775 25.5874 44.1775 24.8518C44.1775 24.0841 43.9536 23.4444 43.5058 22.9327C43.09 22.421 42.5303 21.9732 41.8267 21.5894C41.123 21.1736 40.3234 20.8057 39.4278 20.4859C38.5643 20.1341 37.6847 19.7503 36.7891 19.3345C35.9575 18.9507 35.1579 18.5029 34.3903 17.9911C33.6227 17.4794 32.919 16.8557 32.2793 16.1201C31.6716 15.3844 31.1919 14.4889 30.84 13.4334C30.4882 12.3779 30.3123 11.1305 30.3123 9.69122C30.3123 7.96407 30.6321 6.4928 31.2718 5.2774C31.9435 4.03001 32.8231 3.02251 33.9105 2.25489C34.998 1.48726 36.2134 0.927539 37.5568 0.575713C38.9001 0.191904 40.2754 0 41.6827 0C42.7062 0 43.6977 0.0799594 44.6572 0.23988C45.6488 0.399801 46.5443 0.623692 47.3439 0.91155C48.1435 1.16742 48.7832 1.47127 49.2629 1.8231C49.6148 2.04699 49.9027 2.28687 50.1266 2.54275C50.3504 2.79862 50.4623 3.05449 50.4623 3.31037C50.4623 3.63021 50.3984 4.04601 50.2705 4.55775C50.1745 5.03752 50.0306 5.51728 49.8387 5.99705C49.6788 6.47681 49.4709 6.87661 49.215 7.19645C48.9591 7.51629 48.6873 7.67621 48.3994 7.67621C48.0156 7.67621 47.5038 7.56427 46.8641 7.34038C46.2564 7.08451 45.5208 6.84462 44.6572 6.62073C43.8257 6.36486 42.8821 6.23693 41.8267 6.23693C40.9311 6.23693 40.1795 6.34887 39.5718 6.57276C38.9641 6.79665 38.5003 7.13249 38.1804 7.58026C37.8926 7.99606 37.7486 8.53979 37.7486 9.21146C37.7486 10.0111 37.9885 10.6827 38.4683 11.2265C38.948 11.7382 39.5877 12.186 40.3874 12.5698C41.2189 12.9216 42.0985 13.3054 43.0261 13.7212C44.0176 14.137 45.025 14.6008 46.0485 15.1126C47.072 15.6243 48.0156 16.264 48.8792 17.0316C49.7428 17.7672 50.4304 18.7108 50.9421 19.8622C51.4859 20.9817 51.7577 22.389 51.7577 24.0841C51.7577 25.9712 51.4379 27.5704 50.7982 28.8818C50.1905 30.1931 49.3589 31.2486 48.3034 32.0482C47.2479 32.8478 46.0805 33.4395 44.8012 33.8233C43.5218 34.1752 42.2265 34.3511 40.9151 34.3511Z" fill="white"/>
<path opacity="0.25" d="M21.6678 34.0635C20.8682 34.0635 20.2444 33.9835 19.7966 33.8236C19.3488 33.6317 19.061 33.3438 18.9331 32.96L8.3783 2.20714C8.34631 2.04722 8.31431 1.90329 8.28233 1.77535C8.25034 1.61543 8.23438 1.4715 8.23438 1.34357C8.23438 0.991738 8.42626 0.735864 8.81007 0.575943C9.19388 0.384038 9.8016 0.288086 10.6332 0.288086H12.8881C13.5917 0.288086 14.1834 0.368046 14.6632 0.527968C15.143 0.655905 15.4468 0.911779 15.5748 1.29559L22.9151 26.5791H23.107L30.4474 1.29559C30.5753 0.943763 30.8312 0.687889 31.215 0.527968C31.5988 0.368046 32.0786 0.288086 32.6543 0.288086H34.7173C35.7408 0.288086 36.4764 0.384038 36.9242 0.575943C37.404 0.735864 37.6438 0.991738 37.6438 1.34357C37.6438 1.4715 37.6279 1.61543 37.5959 1.77535C37.5639 1.90329 37.5159 2.04722 37.452 2.20714L26.8972 32.96C26.7692 33.3438 26.4813 33.6317 26.0336 33.8236C25.5858 33.9835 24.9621 34.0635 24.1625 34.0635H21.6678Z" fill="#005139"/>
<path d="M13.4334 34.0635C12.6338 34.0635 12.01 33.9835 11.5622 33.8236C11.1145 33.6317 10.8266 33.3438 10.6987 32.96L0.143923 2.20714C0.111939 2.04722 0.0799343 1.90329 0.04795 1.77535C0.0159658 1.61543 0 1.4715 0 1.34357C0 0.991738 0.191882 0.735864 0.575693 0.575943C0.959504 0.384038 1.56723 0.288086 2.39882 0.288086H4.65371C5.35737 0.288086 5.94905 0.368046 6.42881 0.527968C6.90858 0.655905 7.21244 0.911779 7.34038 1.29559L14.6808 26.5791H14.8726L22.213 1.29559C22.3409 0.943763 22.5968 0.687889 22.9806 0.527968C23.3645 0.368046 23.8442 0.288086 24.4199 0.288086H26.4829C27.5064 0.288086 28.2421 0.384038 28.6898 0.575943C29.1696 0.735864 29.4095 0.991738 29.4095 1.34357C29.4095 1.4715 29.3935 1.61543 29.3615 1.77535C29.3295 1.90329 29.2816 2.04722 29.2176 2.20714L18.6628 32.96C18.5349 33.3438 18.247 33.6317 17.7992 33.8236C17.3514 33.9835 16.7277 34.0635 15.9281 34.0635H13.4334Z" fill="white"/>
</svg>
